<svg xmlns="http://www.w3.org/2000/svg" width="1440" height="725" style="cursor: move;"><g transform="translate(-566.099392168635,-376.8349742044985) scale(2.0139111001134387)"><path class="link" marker-end="" d="M560,272.5, 740,292.5" style="stroke-width: 0.43px; stroke-opacity: 1; stroke: rgb(80, 80, 80);"></path><path class="link" marker-end="" d="M560,272.5, 740,332.5" style="stroke-width: 0.43px; stroke-opacity: 1; stroke: rgb(80, 80, 80);"></path><path class="link" marker-end="" d="M560,272.5, 740,372.5" style="stroke-width: 0.43px; stroke-opacity: 1; stroke: rgb(80, 80, 80);"></path><path class="link" marker-end="" d="M560,272.5, 740,412.5" style="stroke-width: 0.43px; stroke-opacity: 1; stroke: rgb(80, 80, 80);"></path><path class="link" marker-end="" d="M560,272.5, 740,452.5" style="stroke-width: 0.43px; stroke-opacity: 1; stroke: rgb(80, 80, 80);"></path><path class="link" marker-end="" d="M560,312.5, 740,292.5" style="stroke-width: 0.43px; stroke-opacity: 1; stroke: rgb(80, 80, 80);"></path><path class="link" marker-end="" d="M560,312.5, 740,332.5" style="stroke-width: 0.43px; stroke-opacity: 1; stroke: rgb(80, 80, 80);"></path><path class="link" marker-end="" d="M560,312.5, 740,372.5" style="stroke-width: 0.43px; stroke-opacity: 1; stroke: rgb(80, 80, 80);"></path><path class="link" marker-end="" d="M560,312.5, 740,412.5" style="stroke-width: 0.43px; stroke-opacity: 1; stroke: rgb(80, 80, 80);"></path><path class="link" marker-end="" d="M560,312.5, 740,452.5" style="stroke-width: 0.43px; stroke-opacity: 1; stroke: rgb(80, 80, 80);"></path><path class="link" marker-end="" d="M560,352.5, 740,292.5" style="stroke-width: 0.43px; stroke-opacity: 1; stroke: rgb(80, 80, 80);"></path><path class="link" marker-end="" d="M560,352.5, 740,332.5" style="stroke-width: 0.43px; stroke-opacity: 1; stroke: rgb(80, 80, 80);"></path><path class="link" marker-end="" d="M560,352.5, 740,372.5" style="stroke-width: 0.43px; stroke-opacity: 1; stroke: rgb(80, 80, 80);"></path><path class="link" marker-end="" d="M560,352.5, 740,412.5" style="stroke-width: 0.43px; stroke-opacity: 1; stroke: rgb(80, 80, 80);"></path><path class="link" marker-end="" d="M560,352.5, 740,452.5" style="stroke-width: 0.43px; stroke-opacity: 1; stroke: rgb(80, 80, 80);"></path><path class="link" marker-end="" d="M560,392.5, 740,292.5" style="stroke-width: 0.43px; stroke-opacity: 1; stroke: rgb(80, 80, 80);"></path><path class="link" marker-end="" d="M560,392.5, 740,332.5" style="stroke-width: 0.43px; stroke-opacity: 1; stroke: rgb(80, 80, 80);"></path><path class="link" marker-end="" d="M560,392.5, 740,372.5" style="stroke-width: 0.43px; stroke-opacity: 1; stroke: rgb(80, 80, 80);"></path><path class="link" marker-end="" d="M560,392.5, 740,412.5" style="stroke-width: 0.43px; stroke-opacity: 1; stroke: rgb(80, 80, 80);"></path><path class="link" marker-end="" d="M560,392.5, 740,452.5" style="stroke-width: 0.43px; stroke-opacity: 1; stroke: rgb(80, 80, 80);"></path><path class="link" marker-end="" d="M740,252.5, 920,292.5" style="stroke-width: 0.43px; stroke-opacity: 1; stroke: rgb(80, 80, 80);"></path><path class="link" marker-end="" d="M740,252.5, 920,332.5" style="stroke-width: 0.43px; stroke-opacity: 1; stroke: rgb(80, 80, 80);"></path><path class="link" marker-end="" d="M740,252.5, 920,372.5" style="stroke-width: 0.43px; stroke-opacity: 1; stroke: rgb(80, 80, 80);"></path><path class="link" marker-end="" d="M740,252.5, 920,412.5" style="stroke-width: 0.43px; stroke-opacity: 1; stroke: rgb(80, 80, 80);"></path><path class="link" marker-end="" d="M740,292.5, 920,292.5" style="stroke-width: 0.43px; stroke-opacity: 1; stroke: rgb(80, 80, 80);"></path><path class="link" marker-end="" d="M740,292.5, 920,332.5" style="stroke-width: 0.43px; stroke-opacity: 1; stroke: rgb(80, 80, 80);"></path><path class="link" marker-end="" d="M740,292.5, 920,372.5" style="stroke-width: 0.43px; stroke-opacity: 1; stroke: rgb(80, 80, 80);"></path><path class="link" marker-end="" d="M740,292.5, 920,412.5" style="stroke-width: 0.43px; stroke-opacity: 1; stroke: rgb(80, 80, 80);"></path><path class="link" marker-end="" d="M740,332.5, 920,292.5" style="stroke-width: 0.43px; stroke-opacity: 1; stroke: rgb(80, 80, 80);"></path><path class="link" marker-end="" d="M740,332.5, 920,332.5" style="stroke-width: 0.43px; stroke-opacity: 1; stroke: rgb(80, 80, 80);"></path><path class="link" marker-end="" d="M740,332.5, 920,372.5" style="stroke-width: 0.43px; stroke-opacity: 1; stroke: rgb(80, 80, 80);"></path><path class="link" marker-end="" d="M740,332.5, 920,412.5" style="stroke-width: 0.43px; stroke-opacity: 1; stroke: rgb(80, 80, 80);"></path><path class="link" marker-end="" d="M740,372.5, 920,292.5" style="stroke-width: 0.43px; stroke-opacity: 1; stroke: rgb(80, 80, 80);"></path><path class="link" marker-end="" d="M740,372.5, 920,332.5" style="stroke-width: 0.43px; stroke-opacity: 1; stroke: rgb(80, 80, 80);"></path><path class="link" marker-end="" d="M740,372.5, 920,372.5" style="stroke-width: 0.43px; stroke-opacity: 1; stroke: rgb(80, 80, 80);"></path><path class="link" marker-end="" d="M740,372.5, 920,412.5" style="stroke-width: 0.43px; stroke-opacity: 1; stroke: rgb(80, 80, 80);"></path><path class="link" marker-end="" d="M740,412.5, 920,292.5" style="stroke-width: 0.43px; stroke-opacity: 1; stroke: rgb(80, 80, 80);"></path><path class="link" marker-end="" d="M740,412.5, 920,332.5" style="stroke-width: 0.43px; stroke-opacity: 1; stroke: rgb(80, 80, 80);"></path><path class="link" marker-end="" d="M740,412.5, 920,372.5" style="stroke-width: 0.43px; stroke-opacity: 1; stroke: rgb(80, 80, 80);"></path><path class="link" marker-end="" d="M740,412.5, 920,412.5" style="stroke-width: 0.43px; stroke-opacity: 1; stroke: rgb(80, 80, 80);"></path><path class="link" marker-end="" d="M740,452.5, 920,292.5" style="stroke-width: 0.43px; stroke-opacity: 1; stroke: rgb(80, 80, 80);"></path><path class="link" marker-end="" d="M740,452.5, 920,332.5" style="stroke-width: 0.43px; stroke-opacity: 1; stroke: rgb(80, 80, 80);"></path><path class="link" marker-end="" d="M740,452.5, 920,372.5" style="stroke-width: 0.43px; stroke-opacity: 1; stroke: rgb(80, 80, 80);"></path><path class="link" marker-end="" d="M740,452.5, 920,412.5" style="stroke-width: 0.43px; stroke-opacity: 1; stroke: rgb(80, 80, 80);"></path><path class="link" marker-end="" d="M560,432.5, 740,292.5" style="stroke-width: 0.43px; stroke-opacity: 1; stroke: rgb(80, 80, 80);"></path><path class="link" marker-end="" d="M560,432.5, 740,332.5" style="stroke-width: 0.43px; stroke-opacity: 1; stroke: rgb(80, 80, 80);"></path><path class="link" marker-end="" d="M560,432.5, 740,372.5" style="stroke-width: 0.43px; stroke-opacity: 1; stroke: rgb(80, 80, 80);"></path><path class="link" marker-end="" d="M560,432.5, 740,412.5" style="stroke-width: 0.43px; stroke-opacity: 1; stroke: rgb(80, 80, 80);"></path><path class="link" marker-end="" d="M560,432.5, 740,452.5" style="stroke-width: 0.43px; stroke-opacity: 1; stroke: rgb(80, 80, 80);"></path><path class="link" marker-end="" d="M560,272.5, 740,252.5" style="stroke-width: 0.43px; stroke-opacity: 1; stroke: rgb(80, 80, 80);"></path><path class="link" marker-end="" d="M560,312.5, 740,252.5" style="stroke-width: 0.43px; stroke-opacity: 1; stroke: rgb(80, 80, 80);"></path><path class="link" marker-end="" d="M560,352.5, 740,252.5" style="stroke-width: 0.43px; stroke-opacity: 1; stroke: rgb(80, 80, 80);"></path><path class="link" marker-end="" d="M560,392.5, 740,252.5" style="stroke-width: 0.43px; stroke-opacity: 1; stroke: rgb(80, 80, 80);"></path><path class="link" marker-end="" d="M560,432.5, 740,252.5" style="stroke-width: 0.43px; stroke-opacity: 1; stroke: rgb(80, 80, 80);"></path><circle r="10" class="node" id="0_0" cx="560" cy="272.5" style="fill: rgb(255, 255, 255); stroke: rgb(51, 51, 51);"></circle><circle r="10" class="node" id="0_1" cx="560" cy="312.5" style="fill: rgb(255, 255, 255); stroke: rgb(51, 51, 51);"></circle><circle r="10" class="node" id="0_2" cx="560" cy="352.5" style="fill: rgb(255, 255, 255); stroke: rgb(51, 51, 51);"></circle><circle r="10" class="node" id="0_3" cx="560" cy="392.5" style="fill: rgb(255, 255, 255); stroke: rgb(51, 51, 51);"></circle><circle r="10" class="node" id="0_4" cx="560" cy="432.5" style="fill: rgb(255, 255, 255); stroke: rgb(51, 51, 51);"></circle><circle r="10" class="node" id="1_0" cx="740" cy="252.5" style="fill: rgb(255, 255, 255); stroke: rgb(51, 51, 51);"></circle><circle r="10" class="node" id="1_1" cx="740" cy="292.5" style="fill: rgb(255, 255, 255); stroke: rgb(51, 51, 51);"></circle><circle r="10" class="node" id="1_2" cx="740" cy="332.5" style="fill: rgb(255, 255, 255); stroke: rgb(51, 51, 51);"></circle><circle r="10" class="node" id="1_3" cx="740" cy="372.5" style="fill: rgb(255, 255, 255); stroke: rgb(51, 51, 51);"></circle><circle r="10" class="node" id="1_4" cx="740" cy="412.5" style="fill: rgb(255, 255, 255); stroke: rgb(51, 51, 51);"></circle><circle r="10" class="node" id="1_5" cx="740" cy="452.5" style="fill: rgb(255, 255, 255); stroke: rgb(51, 51, 51);"></circle><circle r="10" class="node" id="2_0" cx="920" cy="292.5" style="fill: rgb(255, 255, 255); stroke: rgb(51, 51, 51);"></circle><circle r="10" class="node" id="2_1" cx="920" cy="332.5" style="fill: rgb(255, 255, 255); stroke: rgb(51, 51, 51);"></circle><circle r="10" class="node" id="2_2" cx="920" cy="372.5" style="fill: rgb(255, 255, 255); stroke: rgb(51, 51, 51);"></circle><circle r="10" class="node" id="2_3" cx="920" cy="412.5" style="fill: rgb(255, 255, 255); stroke: rgb(51, 51, 51);"></circle><text class="text" dy=".35em" x="525" y="492.5" style="font-size: 12px;">Input Layer ∈ ℝ⁵</text><text class="text" dy=".35em" x="705" y="492.5" style="font-size: 12px;">Hidden Layer ∈ ℝ⁶</text><text class="text" dy=".35em" x="885" y="492.5" style="font-size: 12px;">Output Layer ∈ ℝ⁴</text></g><defs><marker id="arrow" viewBox="0 -5 10 10" markerWidth="7" markerHeight="7" orient="auto" refX="40"><path d="M0,-5L10,0L0,5" style="stroke: rgb(80, 80, 80); fill: none;"></path></marker></defs></svg>